<?xml version="1.0" encoding="UTF-8" standalone="no"?>
<!-- Created with Inkscape (http://www.inkscape.org/) -->

<svg
   xmlns:dc="http://purl.org/dc/elements/1.1/"
   xmlns:cc="http://creativecommons.org/ns#"
   xmlns:rdf="http://www.w3.org/1999/02/22-rdf-syntax-ns#"
   xmlns:svg="http://www.w3.org/2000/svg"
   xmlns="http://www.w3.org/2000/svg"
   xmlns:xlink="http://www.w3.org/1999/xlink"
   xmlns:sodipodi="http://sodipodi.sourceforge.net/DTD/sodipodi-0.dtd"
   xmlns:inkscape="http://www.inkscape.org/namespaces/inkscape"
   inkscape:export-ydpi="90.000000"
   inkscape:export-xdpi="90.000000"
   width="41"
   height="41"
   id="svg11300"
   sodipodi:version="0.32"
   inkscape:version="0.91 r13725"
   sodipodi:docname="close-hover.svg"
   inkscape:output_extension="org.inkscape.output.svg.inkscape"
   version="1.0"
   style="display:inline;enable-background:new">
  <sodipodi:namedview
     stroke="#ef2929"
     fill="#f57900"
     id="base"
     pagecolor="#8c8c8c"
     bordercolor="#ff5e00"
     borderopacity="1"
     inkscape:pageopacity="1"
     inkscape:pageshadow="2"
     inkscape:zoom="13.336819"
     inkscape:cx="5.8398253"
     inkscape:cy="19.114709"
     inkscape:current-layer="layer1"
     showgrid="true"
     inkscape:grid-bbox="true"
     inkscape:document-units="px"
     inkscape:showpageshadow="false"
     inkscape:window-width="1600"
     inkscape:window-height="852"
     inkscape:window-x="0"
     inkscape:window-y="26"
     width="400px"
     height="300px"
     inkscape:snap-nodes="true"
     inkscape:snap-bbox="true"
     gridtolerance="10000"
     inkscape:object-nodes="true"
     inkscape:snap-grids="true"
     showguides="true"
     inkscape:guide-bbox="true"
     inkscape:window-maximized="1"
     inkscape:bbox-nodes="true"
     inkscape:bbox-paths="false"
     inkscape:snap-bbox-edge-midpoints="false"
     inkscape:snap-bbox-midpoints="false"
     objecttolerance="10000"
     guidetolerance="10000"
     borderlayer="true"
     showborder="true"
     guidecolor="#ff0b00"
     guideopacity="1"
     guidehicolor="#001aff"
     guidehiopacity="0.49803922"
     inkscape:snap-intersection-paths="false"
     inkscape:snap-midpoints="false"
     inkscape:snap-smooth-nodes="false"
     inkscape:object-paths="false">
    <inkscape:grid
       type="xygrid"
       id="grid3123"
       empspacing="4"
       visible="true"
       enabled="true"
       snapvisiblegridlinesonly="true" />
  </sodipodi:namedview>
  <defs
     id="defs3">
    <linearGradient
       gradientTransform="matrix(0.89999999,0,0,0.89999999,-296.6,-39.4)"
       inkscape:collect="always"
       xlink:href="#linearGradient3811-3"
       id="linearGradient4077"
       x1="4"
       y1="21"
       x2="34"
       y2="21"
       gradientUnits="userSpaceOnUse" />
    <linearGradient
       id="linearGradient3811-3">
      <stop
         id="stop3813-3"
         offset="0"
         style="stop-color:#000000;stop-opacity:1" />
      <stop
         id="stop3815-9"
         offset="1"
         style="stop-color:#000000;stop-opacity:0" />
    </linearGradient>
  </defs>
  <metadata
     id="metadata4">
    <rdf:RDF>
      <cc:Work
         rdf:about="">
        <dc:format>image/svg+xml</dc:format>
        <dc:type
           rdf:resource="http://purl.org/dc/dcmitype/StillImage" />
        <dc:creator>
          <cc:Agent>
            <dc:title />
          </cc:Agent>
        </dc:creator>
        <dc:source />
        <cc:license
           rdf:resource="" />
        <dc:title />
        <dc:subject>
          <rdf:Bag />
        </dc:subject>
        <dc:date />
        <dc:rights>
          <cc:Agent>
            <dc:title />
          </cc:Agent>
        </dc:rights>
        <dc:publisher>
          <cc:Agent>
            <dc:title />
          </cc:Agent>
        </dc:publisher>
        <dc:identifier />
        <dc:relation />
        <dc:language />
        <dc:coverage />
        <dc:description />
        <dc:contributor>
          <cc:Agent>
            <dc:title />
          </cc:Agent>
        </dc:contributor>
      </cc:Work>
      <cc:Work
         rdf:about="">
        <dc:format>image/svg+xml</dc:format>
        <dc:type
           rdf:resource="http://purl.org/dc/dcmitype/StillImage" />
      </cc:Work>
    </rdf:RDF>
  </metadata>
  <g
     style="display:inline"
     inkscape:groupmode="layer"
     inkscape:label="Base"
     id="layer1"
     transform="translate(0,-259)">
    <path
       inkscape:connector-curvature="0"
       style="display:inline;opacity:0.01000001;fill:#000000;fill-opacity:1;stroke:none;enable-background:new"
       d="M 20.5,259 C 9.178176,259 0,268.17818 0,279.5 0,290.82182 9.178176,300 20.5,300 31.821824,300 41,290.82182 41,279.5 41,268.17818 31.821824,259 20.5,259 Z m 0,3 C 30.164983,262 38,269.83502 38,279.5 38,289.16498 30.164983,297 20.5,297 10.835017,297 3,289.16498 3,279.5 3,269.83502 10.835017,262 20.5,262 Z"
       id="circle4022" />
    <path
       inkscape:connector-curvature="0"
       style="display:inline;opacity:0.07999998;fill:#000000;fill-opacity:1;stroke:none;enable-background:new"
       d="M 20.5,260 C 9.730453,260 1,268.73045 1,279.5 1,290.26955 9.730453,299 20.5,299 31.269547,299 40,290.26955 40,279.5 40,268.73045 31.269547,260 20.5,260 Z m 0,2 C 30.164983,262 38,269.83502 38,279.5 38,289.16498 30.164983,297 20.5,297 10.835017,297 3,289.16498 3,279.5 3,269.83502 10.835017,262 20.5,262 Z"
       id="circle4020" />
    <path
       inkscape:connector-curvature="0"
       style="display:inline;opacity:0.3;fill:#000000;fill-opacity:1;stroke:none;enable-background:new"
       d="M 20.5,261 C 10.282732,261 2,269.28273 2,279.5 2,289.71727 10.282732,298 20.5,298 30.717268,298 39,289.71727 39,279.5 39,269.28273 30.717268,261 20.5,261 Z m 0,1 C 30.164983,262 38,269.83502 38,279.5 38,289.16498 30.164983,297 20.5,297 10.835017,297 3,289.16498 3,279.5 3,269.83502 10.835017,262 20.5,262 Z"
       id="circle4018" />
    <circle
       id="path5896"
       style="display:inline;opacity:0.5;fill:#ffffff;fill-opacity:1;stroke:none;enable-background:new"
       cx="20.500004"
       cy="279.5"
       r="17.5" />
    <circle
       style="display:inline;opacity:0.11;fill:#ba0000;fill-opacity:1;stroke:none;enable-background:new"
       id="circle4204"
       cx="20.5"
       cy="279.5"
       r="15.5" />
    <circle
       r="14.5"
       cy="279.5"
       cx="20.5"
       id="path5698"
       style="display:inline;opacity:0.75;fill:#960000;fill-opacity:1;stroke:none;enable-background:new" />
    <circle
       r="13.5"
       cy="279.5"
       cx="20.5"
       style="display:inline;fill:#e36767;fill-opacity:1;stroke:none;enable-background:new"
       id="path5700" />
    <circle
       r="13.5"
       cy="-20.5"
       cx="-279.5"
       transform="matrix(0,-1,-1,0,0,0)"
       id="path4069"
       style="display:inline;opacity:0.07000002;fill:url(#linearGradient4077);fill-opacity:1;stroke:none;enable-background:new" />
    <path
       style="color:#000000;font-style:normal;font-variant:normal;font-weight:normal;font-stretch:normal;font-size:medium;line-height:normal;font-family:Sans;-inkscape-font-specification:Sans;text-indent:0;text-align:start;text-decoration:none;text-decoration-line:none;letter-spacing:normal;word-spacing:normal;text-transform:none;direction:ltr;block-progression:tb;writing-mode:lr-tb;baseline-shift:baseline;text-anchor:start;display:inline;overflow:visible;visibility:visible;opacity:1;fill:#ffffff;fill-opacity:1;stroke:none;stroke-width:2;marker:none;enable-background:accumulate"
       d="M 17.50251,275 16,275 l 0,1.50251 2.99749,2.9975 L 16,282.49749 16,284 17.50251,284 20.5,281.00251 23.49749,284 25,284 25,282.49749 22.00251,279.50001 25,276.50251 25,275 23.49749,275 20.5,277.99749 Z"
       id="path4167-4"
       inkscape:connector-curvature="0"
       sodipodi:nodetypes="ccccccccccccccccc" />
  </g>
</svg>
