<?xml version="1.0" encoding="UTF-8" standalone="no"?>
<!-- Created with Inkscape (http://www.inkscape.org/) -->

<svg
   xmlns:dc="http://purl.org/dc/elements/1.1/"
   xmlns:cc="http://creativecommons.org/ns#"
   xmlns:rdf="http://www.w3.org/1999/02/22-rdf-syntax-ns#"
   xmlns:svg="http://www.w3.org/2000/svg"
   xmlns="http://www.w3.org/2000/svg"
   xmlns:sodipodi="http://sodipodi.sourceforge.net/DTD/sodipodi-0.dtd"
   xmlns:inkscape="http://www.inkscape.org/namespaces/inkscape"
   inkscape:export-ydpi="90.000000"
   inkscape:export-xdpi="90.000000"
   width="41"
   height="41"
   id="svg11300"
   sodipodi:version="0.32"
   inkscape:version="0.92.2 (5c3e80d, 2017-08-06)"
   sodipodi:docname="close-pressed.svg"
   inkscape:output_extension="org.inkscape.output.svg.inkscape"
   version="1.0"
   style="display:inline;enable-background:new">
  <sodipodi:namedview
     stroke="#ef2929"
     fill="#f57900"
     id="base"
     pagecolor="#8c8c8c"
     bordercolor="#ff5e00"
     borderopacity="1"
     inkscape:pageopacity="1"
     inkscape:pageshadow="2"
     inkscape:zoom="16.560976"
     inkscape:cx="8.3983549"
     inkscape:cy="21.442552"
     inkscape:current-layer="layer1"
     showgrid="true"
     inkscape:grid-bbox="true"
     inkscape:document-units="px"
     inkscape:showpageshadow="false"
     inkscape:window-width="1600"
     inkscape:window-height="846"
     inkscape:window-x="0"
     inkscape:window-y="26"
     width="400px"
     height="300px"
     inkscape:snap-nodes="true"
     inkscape:snap-bbox="true"
     gridtolerance="10000"
     inkscape:object-nodes="true"
     inkscape:snap-grids="true"
     showguides="true"
     inkscape:guide-bbox="true"
     inkscape:window-maximized="1"
     inkscape:bbox-nodes="true"
     inkscape:bbox-paths="false"
     inkscape:snap-bbox-edge-midpoints="false"
     inkscape:snap-bbox-midpoints="false"
     objecttolerance="10000"
     guidetolerance="10000"
     borderlayer="true"
     showborder="true"
     guidecolor="#ff0b00"
     guideopacity="1"
     guidehicolor="#001aff"
     guidehiopacity="0.49803922"
     inkscape:snap-smooth-nodes="false"
     inkscape:snap-global="false">
    <inkscape:grid
       type="xygrid"
       id="grid4347"
       empspacing="5"
       visible="true"
       enabled="true"
       snapvisiblegridlinesonly="true" />
  </sodipodi:namedview>
  <defs
     id="defs3" />
  <metadata
     id="metadata4">
    <rdf:RDF>
      <cc:Work
         rdf:about="">
        <dc:format>image/svg+xml</dc:format>
        <dc:type
           rdf:resource="http://purl.org/dc/dcmitype/StillImage" />
        <dc:creator>
          <cc:Agent>
            <dc:title />
          </cc:Agent>
        </dc:creator>
        <dc:source />
        <cc:license
           rdf:resource="" />
        <dc:title />
        <dc:subject>
          <rdf:Bag />
        </dc:subject>
        <dc:date />
        <dc:rights>
          <cc:Agent>
            <dc:title />
          </cc:Agent>
        </dc:rights>
        <dc:publisher>
          <cc:Agent>
            <dc:title />
          </cc:Agent>
        </dc:publisher>
        <dc:identifier />
        <dc:relation />
        <dc:language />
        <dc:coverage />
        <dc:description />
        <dc:contributor>
          <cc:Agent>
            <dc:title />
          </cc:Agent>
        </dc:contributor>
      </cc:Work>
      <cc:Work
         rdf:about="">
        <dc:format>image/svg+xml</dc:format>
        <dc:type
           rdf:resource="http://purl.org/dc/dcmitype/StillImage" />
      </cc:Work>
    </rdf:RDF>
  </metadata>
  <g
     style="display:inline"
     inkscape:groupmode="layer"
     inkscape:label="Base"
     id="layer1"
     transform="translate(0,-259)">
    <path
       style="display:inline;opacity:0.02;fill:#000000;fill-opacity:1;stroke:none;enable-background:new"
       d="M 20.5 2 A 18.5 18.5 0 0 0 2 20.5 A 18.5 18.5 0 0 0 20.5 39 A 18.5 18.5 0 0 0 39 20.5 A 18.5 18.5 0 0 0 20.5 2 z M 20.5 3.2421875 A 17.258469 17.258469 0 0 1 37.757812 20.5 A 17.258469 17.258469 0 0 1 20.5 37.757812 A 17.258469 17.258469 0 0 1 3.2421875 20.5 A 17.258469 17.258469 0 0 1 20.5 3.2421875 z "
       transform="translate(0,259)"
       id="circle4184" />
    <circle
       id="path5896-9"
       style="display:inline;opacity:0.9;fill:#131619;fill-opacity:1;stroke:none;enable-background:new"
       cx="20.5"
       cy="279.5"
       r="16.5" />
    <path
       inkscape:connector-curvature="0"
       style="display:inline;opacity:0.85;fill:#000000;fill-opacity:1;stroke:none;enable-background:new"
       d="M 20.5,262 A 17.5,17.5 0 0 0 3,279.5 17.5,17.5 0 0 0 20.5,297 17.5,17.5 0 0 0 38,279.5 17.5,17.5 0 0 0 20.5,262 Z m 0,1.40234 A 16.096783,16.096783 0 0 1 36.597656,279.5 16.096783,16.096783 0 0 1 20.5,295.59766 16.096783,16.096783 0 0 1 4.402344,279.5 16.096783,16.096783 0 0 1 20.5,263.40234 Z"
       id="circle4240" />
    <circle
       r="14.5"
       cy="279.5"
       cx="20.5"
       id="circle4191"
       style="display:inline;opacity:0.8;fill:#000000;fill-opacity:1;stroke:none;enable-background:new" />
    <circle
       style="display:inline;fill:#ed415d;fill-opacity:1;stroke:none;enable-background:new"
       id="path5700-0"
       cx="20.5"
       cy="279.5"
       r="13.5" />
    <g
       transform="translate(41.5,1)"
       id="g4447">
      <path
         id="path4146"
         d="m -21,265 c -7.455844,0 -13.5,6.04416 -13.5,13.5 0,7.45585 6.044156,13.5 13.5,13.5 7.455844,0 13.5,-6.04415 13.5,-13.5 0,-7.45584 -6.044156,-13.5 -13.5,-13.5 z m 0,1 c 6.90356,0 12.5,5.59644 12.5,12.5 0,6.90356 -5.59644,12.5 -12.5,12.5 -6.90356,0 -12.5,-5.59644 -12.5,-12.5 0,-6.90356 5.59644,-12.5 12.5,-12.5 z"
         style="display:inline;opacity:0.37000002;fill:#000000;fill-opacity:1;stroke:none;enable-background:new"
         inkscape:connector-curvature="0" />
      <path
         inkscape:connector-curvature="0"
         id="path4159-7"
         d="m -8.5,278.5 c 0,-6.90356 -5.59644,-12.5 -12.5,-12.5 -6.90356,0 -12.5,5.59644 -12.5,12.5 0,6.90356 5.59644,12.5 12.5,12.5 6.90356,0 12.5,-5.59644 12.5,-12.5 z m -1,0 c 0,6.35127 -5.148726,11.5 -11.5,11.5 -6.351274,0 -11.5,-5.14873 -11.5,-11.5 0,-6.35127 5.148726,-11.5 11.5,-11.5 6.351274,0 11.5,5.14873 11.5,11.5 z"
         style="display:inline;opacity:0.05;fill:#000000;fill-opacity:1;stroke:none;enable-background:new" />
    </g>
    <path
       sodipodi:nodetypes="ccccccccccccccccc"
       inkscape:connector-curvature="0"
       id="path4167"
       d="M 17.502513,275 16,275 l 0,1.50251 2.997487,2.9975 L 16,282.49749 16,284 17.502513,284 20.5,281.00251 23.497487,284 25,284 25,282.49749 22.002513,279.50001 25,276.50251 25,275 23.497487,275 20.5,277.99749 Z"
       style="color:#000000;font-style:normal;font-variant:normal;font-weight:normal;font-stretch:normal;font-size:medium;line-height:normal;font-family:Sans;-inkscape-font-specification:Sans;text-indent:0;text-align:start;text-decoration:none;text-decoration-line:none;letter-spacing:normal;word-spacing:normal;text-transform:none;direction:ltr;block-progression:tb;writing-mode:lr-tb;baseline-shift:baseline;text-anchor:start;display:inline;overflow:visible;visibility:visible;opacity:1;fill:#ffffff;fill-opacity:1;stroke:none;stroke-width:2;marker:none;enable-background:accumulate" />
  </g>
</svg>
