<?xml version="1.0" encoding="UTF-8" standalone="no"?>
<!-- Created with Inkscape (http://www.inkscape.org/) -->

<svg
   xmlns:dc="http://purl.org/dc/elements/1.1/"
   xmlns:cc="http://creativecommons.org/ns#"
   xmlns:rdf="http://www.w3.org/1999/02/22-rdf-syntax-ns#"
   xmlns:svg="http://www.w3.org/2000/svg"
   xmlns="http://www.w3.org/2000/svg"
   xmlns:sodipodi="http://sodipodi.sourceforge.net/DTD/sodipodi-0.dtd"
   xmlns:inkscape="http://www.inkscape.org/namespaces/inkscape"
   inkscape:export-ydpi="90.000000"
   inkscape:export-xdpi="90.000000"
   width="26"
   height="16"
   id="svg11300"
   sodipodi:version="0.32"
   inkscape:version="0.91 r13725"
   sodipodi:docname="alt-off.svg"
   inkscape:output_extension="org.inkscape.output.svg.inkscape"
   version="1.0"
   style="display:inline;enable-background:new">
  <sodipodi:namedview
     stroke="#ef2929"
     fill="#f57900"
     id="base"
     pagecolor="#8c8c8c"
     bordercolor="#ff5e00"
     borderopacity="1"
     inkscape:pageopacity="1"
     inkscape:pageshadow="2"
     inkscape:zoom="18.861111"
     inkscape:cx="10.096629"
     inkscape:cy="6.7374233"
     inkscape:current-layer="layer1"
     showgrid="true"
     inkscape:grid-bbox="true"
     inkscape:document-units="px"
     inkscape:showpageshadow="false"
     inkscape:window-width="1600"
     inkscape:window-height="848"
     inkscape:window-x="0"
     inkscape:window-y="24"
     width="400px"
     height="300px"
     inkscape:snap-nodes="true"
     inkscape:snap-bbox="true"
     gridtolerance="10000"
     inkscape:object-nodes="true"
     inkscape:snap-grids="true"
     showguides="true"
     inkscape:guide-bbox="true"
     inkscape:window-maximized="1"
     inkscape:bbox-nodes="true"
     inkscape:bbox-paths="false"
     inkscape:snap-bbox-edge-midpoints="false"
     inkscape:snap-bbox-midpoints="false"
     objecttolerance="10000"
     guidetolerance="10000"
     borderlayer="true"
     showborder="true"
     guidecolor="#ff0b00"
     guideopacity="1"
     guidehicolor="#001aff"
     guidehiopacity="0.49803922"
     inkscape:snap-intersection-paths="false"
     inkscape:snap-midpoints="false"
     inkscape:snap-smooth-nodes="false"
     inkscape:object-paths="false">
    <inkscape:grid
       type="xygrid"
       id="grid3123"
       empspacing="4"
       visible="true"
       enabled="true"
       snapvisiblegridlinesonly="true" />
  </sodipodi:namedview>
  <defs
     id="defs3" />
  <metadata
     id="metadata4">
    <rdf:RDF>
      <cc:Work
         rdf:about="">
        <dc:format>image/svg+xml</dc:format>
        <dc:type
           rdf:resource="http://purl.org/dc/dcmitype/StillImage" />
        <dc:creator>
          <cc:Agent>
            <dc:title />
          </cc:Agent>
        </dc:creator>
        <dc:source />
        <cc:license
           rdf:resource="" />
        <dc:title />
        <dc:subject>
          <rdf:Bag />
        </dc:subject>
        <dc:date />
        <dc:rights>
          <cc:Agent>
            <dc:title />
          </cc:Agent>
        </dc:rights>
        <dc:publisher>
          <cc:Agent>
            <dc:title />
          </cc:Agent>
        </dc:publisher>
        <dc:identifier />
        <dc:relation />
        <dc:language />
        <dc:coverage />
        <dc:description />
        <dc:contributor>
          <cc:Agent>
            <dc:title />
          </cc:Agent>
        </dc:contributor>
      </cc:Work>
      <cc:Work
         rdf:about="">
        <dc:format>image/svg+xml</dc:format>
        <dc:type
           rdf:resource="http://purl.org/dc/dcmitype/StillImage" />
      </cc:Work>
    </rdf:RDF>
  </metadata>
  <g
     style="display:inline"
     inkscape:groupmode="layer"
     inkscape:label="Base"
     id="layer1"
     transform="translate(0,-284)">
    <path
       style="display:inline;opacity:0.02000002;fill:#000000;fill-opacity:1;stroke:none;enable-background:new"
       d="m 18,284 c 4.432,0 8,3.568 8,8 0,4.432 -3.568,8 -8,8 l -10,0 c -4.432,0 -8,-3.568 -8,-8 0,-4.432 3.568,-8 8,-8 l 10,0 z m 0,1 -10,0 c -3.878,0 -7,3.122 -7,7 0,3.878 3.122,7 7,7 l 10,0 c 3.878,0 7,-3.122 7,-7 0,-3.878 -3.122,-7 -7,-7 z"
       id="rect4383"
       inkscape:connector-curvature="0" />
    <path
       style="display:inline;opacity:0.2;fill:#000000;fill-opacity:1;stroke:none;enable-background:new"
       d="m 18,285 c 3.878,0 7,3.122 7,7 0,3.878 -3.122,7 -7,7 l -10,0 c -3.878,0 -7,-3.122 -7,-7 0,-3.878 3.122,-7 7,-7 l 10,0 z m 0,1 -10,0 c -3.324,0 -6,2.676 -6,6 0,3.324 2.676,6 6,6 l 10,0 c 3.324,0 6,-2.676 6,-6 0,-3.324 -2.676,-6 -6,-6 z"
       id="rect4376"
       inkscape:connector-curvature="0" />
    <rect
       rx="6"
       ry="6"
       style="display:inline;opacity:0.7;fill:#ffffff;fill-opacity:1;stroke:none;enable-background:new"
       id="rect5188-4-7-3"
       width="22"
       height="12"
       x="2"
       y="286" />
    <circle
       r="3"
       cy="292"
       cx="8"
       id="path4176"
       style="opacity:0.2;fill:#000000;fill-opacity:1;fill-rule:nonzero;stroke:none;stroke-width:2;stroke-linecap:round;stroke-linejoin:round;stroke-miterlimit:4;stroke-dasharray:8, 8;stroke-dashoffset:15.60000038;stroke-opacity:1" />
    <circle
       style="opacity:1;fill:#f5f5f5;fill-opacity:1;fill-rule:nonzero;stroke:none;stroke-width:2;stroke-linecap:round;stroke-linejoin:round;stroke-miterlimit:4;stroke-dasharray:8, 8;stroke-dashoffset:15.60000038;stroke-opacity:1"
       id="circle4178"
       cx="8"
       cy="292"
       r="2" />
    <path
       style="display:inline;opacity:0.02000002;fill:#000000;fill-opacity:1;stroke:none;enable-background:new"
       d="m 18,286 c 3.324,0 6,2.676 6,6 0,3.324 -2.676,6 -6,6 l -10,0 c -3.324,0 -6,-2.676 -6,-6 0,-3.324 2.676,-6 6,-6 l 10,0 z m 0,1 -10,0 c -2.77,0 -5,2.23 -5,5 0,2.77 2.23,5 5,5 l 10,0 c 2.77,0 5,-2.23 5,-5 0,-2.77 -2.23,-5 -5,-5 z"
       id="rect4378"
       inkscape:connector-curvature="0" />
    <path
       style="opacity:0.02;fill:#000000;fill-opacity:1;fill-rule:nonzero;stroke:none;stroke-width:2;stroke-linecap:round;stroke-linejoin:round;stroke-miterlimit:4;stroke-dasharray:8, 8;stroke-dashoffset:15.60000038;stroke-opacity:1"
       d="M 8 6 A 2 2 0 0 0 6 8 A 2 2 0 0 0 8 10 A 2 2 0 0 0 10 8 A 2 2 0 0 0 8 6 z M 8 7 A 1 1 0 0 1 9 8 A 1 1 0 0 1 8 9 A 1 1 0 0 1 7 8 A 1 1 0 0 1 8 7 z "
       transform="translate(0,284)"
       id="circle4160" />
    <path
       style="opacity:0.02;fill:#000000;fill-opacity:1;fill-rule:nonzero;stroke:none;stroke-width:2;stroke-linecap:round;stroke-linejoin:round;stroke-miterlimit:4;stroke-dasharray:8, 8;stroke-dashoffset:15.60000038;stroke-opacity:1"
       d="M 8 4 A 4 4 0 0 0 4 8 A 4 4 0 0 0 8 12 A 4 4 0 0 0 12 8 A 4 4 0 0 0 8 4 z M 8 5 A 3 3 0 0 1 11 8 A 3 3 0 0 1 8 11 A 3 3 0 0 1 5 8 A 3 3 0 0 1 8 5 z "
       transform="translate(0,284)"
       id="circle4165" />
  </g>
</svg>
