<?xml version="1.0" encoding="UTF-8" standalone="no"?>
<!-- Created with Inkscape (http://www.inkscape.org/) -->

<svg
   xmlns:dc="http://purl.org/dc/elements/1.1/"
   xmlns:cc="http://creativecommons.org/ns#"
   xmlns:rdf="http://www.w3.org/1999/02/22-rdf-syntax-ns#"
   xmlns:svg="http://www.w3.org/2000/svg"
   xmlns="http://www.w3.org/2000/svg"
   xmlns:sodipodi="http://sodipodi.sourceforge.net/DTD/sodipodi-0.dtd"
   xmlns:inkscape="http://www.inkscape.org/namespaces/inkscape"
   inkscape:export-ydpi="90.000000"
   inkscape:export-xdpi="90.000000"
   width="24"
   height="24"
   id="svg11300"
   sodipodi:version="0.32"
   inkscape:version="0.91 r13725"
   sodipodi:docname="entry-auth-focused.svg"
   inkscape:output_extension="org.inkscape.output.svg.inkscape"
   version="1.0"
   style="display:inline;enable-background:new">
  <sodipodi:namedview
     stroke="#ef2929"
     fill="#f57900"
     id="base"
     pagecolor="#8c8c8c"
     bordercolor="#ff5e00"
     borderopacity="1"
     inkscape:pageopacity="1"
     inkscape:pageshadow="2"
     inkscape:zoom="21.06589"
     inkscape:cx="-3.7360903"
     inkscape:cy="9.8711471"
     inkscape:current-layer="layer1"
     showgrid="true"
     inkscape:grid-bbox="true"
     inkscape:document-units="px"
     inkscape:showpageshadow="false"
     inkscape:window-width="1600"
     inkscape:window-height="848"
     inkscape:window-x="0"
     inkscape:window-y="24"
     width="400px"
     height="300px"
     inkscape:snap-nodes="true"
     inkscape:snap-bbox="true"
     gridtolerance="10000"
     inkscape:object-nodes="true"
     inkscape:snap-grids="true"
     showguides="true"
     inkscape:guide-bbox="true"
     inkscape:window-maximized="1"
     inkscape:bbox-nodes="true"
     inkscape:bbox-paths="false"
     inkscape:snap-bbox-edge-midpoints="false"
     inkscape:snap-bbox-midpoints="false"
     objecttolerance="10000"
     guidetolerance="10000"
     borderlayer="true"
     showborder="true"
     guidecolor="#ff0b00"
     guideopacity="1"
     guidehicolor="#001aff"
     guidehiopacity="0.49803922"
     inkscape:snap-smooth-nodes="true">
    <inkscape:grid
       type="xygrid"
       id="grid3123"
       empspacing="4"
       visible="true"
       enabled="true"
       snapvisiblegridlinesonly="true" />
  </sodipodi:namedview>
  <defs
     id="defs3" />
  <metadata
     id="metadata4">
    <rdf:RDF>
      <cc:Work
         rdf:about="">
        <dc:format>image/svg+xml</dc:format>
        <dc:type
           rdf:resource="http://purl.org/dc/dcmitype/StillImage" />
        <dc:creator>
          <cc:Agent>
            <dc:title />
          </cc:Agent>
        </dc:creator>
        <dc:source />
        <cc:license
           rdf:resource="" />
        <dc:title></dc:title>
        <dc:subject>
          <rdf:Bag />
        </dc:subject>
        <dc:date />
        <dc:rights>
          <cc:Agent>
            <dc:title />
          </cc:Agent>
        </dc:rights>
        <dc:publisher>
          <cc:Agent>
            <dc:title />
          </cc:Agent>
        </dc:publisher>
        <dc:identifier />
        <dc:relation />
        <dc:language />
        <dc:coverage />
        <dc:description />
        <dc:contributor>
          <cc:Agent>
            <dc:title />
          </cc:Agent>
        </dc:contributor>
      </cc:Work>
      <cc:Work
         rdf:about="">
        <dc:format>image/svg+xml</dc:format>
        <dc:type
           rdf:resource="http://purl.org/dc/dcmitype/StillImage" />
      </cc:Work>
    </rdf:RDF>
  </metadata>
  <g
     style="display:inline"
     inkscape:groupmode="layer"
     inkscape:label="Base"
     id="layer1"
     transform="translate(0,-276)">
    <path
       style="opacity:0.07;fill:#007ce6;fill-opacity:1;stroke:none"
       d="M 3 0 C 1.338 0 4.7509197e-18 1.338 0 3 L 0 21 C 0 22.662 1.338 24 3 24 L 21 24 C 22.662 24 24 22.662 24 21 L 24 3 C 24 1.338 22.662 4.7509197e-18 21 0 L 3 0 z M 3 1 L 21 1 C 22.108 1 23 1.892 23 3 L 23 21 C 23 22.108 22.108 23 21 23 L 3 23 C 1.892 23 1 22.108 1 21 L 1 3 C 1 1.892 1.892 1 3 1 z "
       id="rect6535"
       transform="translate(0,276)" />
    <path
       inkscape:connector-curvature="0"
       style="display:inline;opacity:0.14999999;fill:#007ce6;fill-opacity:1;stroke:none;enable-background:new"
       d="m 3,277 c -1.2465,0 -2.25,1.0035 -2.25,2.25 l 0,17.5 c 0,1.2465 1.0035,2.25 2.25,2.25 l 17.75,0 c 1.2465,0 2.25,-1.0035 2.25,-2.25 l 0,-17.5 C 23,278.0035 21.9965,277 20.75,277 Z m -0.25,2 18.25,0 0,18 -18.25,0 z"
       id="rect3792-6"
       sodipodi:nodetypes="sssssssssccccc" />
    <rect
       style="opacity:0.7;fill:#f7ffa1;fill-opacity:1;stroke:none"
       id="rect5188"
       width="18"
       height="18"
       x="3"
       y="279" />
    <g
       transform="matrix(-1,0,0,1,24,0)"
       id="g3087-2-4"
       style="display:inline;enable-background:new">
      <path
         sodipodi:nodetypes="ccccc"
         style="opacity:0.02999998;fill:#285378;fill-opacity:1;stroke:none"
         d="m 3,280 18,0 0,1 -18,0 z"
         id="rect3955-5-5"
         inkscape:connector-curvature="0" />
      <path
         sodipodi:nodetypes="ccccc"
         style="opacity:0.13;fill:#285378;fill-opacity:1;stroke:none"
         d="m 3,279 18,0 0,1 -18,0 z"
         id="rect3949-6-9"
         inkscape:connector-curvature="0" />
      <path
         sodipodi:nodetypes="ccccc"
         style="opacity:0.13;fill:#285378;fill-opacity:1;stroke:none"
         d="m 4,279 0,18 -1,0 0,-18 z"
         id="rect3951-0-3"
         inkscape:connector-curvature="0" />
      <path
         sodipodi:nodetypes="ccccc"
         style="opacity:0.13;fill:#285378;fill-opacity:1;stroke:none"
         d="m 21,279 0,18 -1,0 0,-18 z"
         id="rect3953-5-7"
         inkscape:connector-curvature="0" />
      <path
         sodipodi:nodetypes="ccccc"
         style="opacity:0.02999998;fill:#285378;fill-opacity:1;stroke:none"
         d="m 5,279 0,18 -1,0 0,-18 z"
         id="rect3959-9-0"
         inkscape:connector-curvature="0" />
      <path
         sodipodi:nodetypes="ccccc"
         style="opacity:0.02999998;fill:#285378;fill-opacity:1;stroke:none"
         d="m 20,279 0,18 -1,0 0,-18 z"
         id="rect3963-4-7"
         inkscape:connector-curvature="0" />
      <path
         sodipodi:nodetypes="ccccc"
         style="opacity:0.13;fill:#285378;fill-opacity:1;stroke:none"
         d="m 3,296 18,0 0,1 -18,0 z"
         id="path3216-6-7"
         inkscape:connector-curvature="0" />
      <path
         inkscape:connector-curvature="0"
         id="path4146"
         d="m 3,295 18,0 0,1 -18,0 z"
         style="opacity:0.02999998;fill:#285378;fill-opacity:1;stroke:none"
         sodipodi:nodetypes="ccccc" />
    </g>
    <path
       style="display:inline;opacity:0.6;fill:#074885;fill-opacity:1;stroke:none;enable-background:new"
       d="m 22,278 0,20 -20,0 0,-20 z m -1,1 -18,0 0,18 18,0 z"
       id="rect5190-9-0"
       inkscape:connector-curvature="0"
       sodipodi:nodetypes="cccccccccc" />
  </g>
</svg>
